<?xml version="1.0" encoding="UTF-8"?><svg xmlns="http://www.w3.org/2000/svg" xmlns:xlink="http://www.w3.org/1999/xlink" fill-opacity="1" color-rendering="auto" color-interpolation="auto" text-rendering="auto" stroke="black" stroke-linecap="square" width="680" stroke-miterlimit="10" shape-rendering="auto" stroke-opacity="1" fill="black" stroke-dasharray="none" font-weight="normal" stroke-width="1" height="314" font-family="'Dialog'" font-style="normal" stroke-linejoin="miter" font-size="12px" stroke-dashoffset="0" image-rendering="auto">
  <!--Generated by ySVG 2.6-->
  <defs id="genericDefs"/>
  <g>
    <defs id="defs1">
      <clipPath clipPathUnits="userSpaceOnUse" id="clipPath1">
        <path d="M0 0 L680 0 L680 314 L0 314 L0 0 Z"/>
      </clipPath>
      <clipPath clipPathUnits="userSpaceOnUse" id="clipPath2">
        <path d="M248 -162 L928 -162 L928 152 L248 152 L248 -162 Z"/>
      </clipPath>
      <clipPath clipPathUnits="userSpaceOnUse" id="clipPath3">
        <path d="M-136.3398 425.6084 L-136.3398 -254.3916 L177.6602 -254.3916 L177.6602 425.6084 L-136.3398 425.6084 Z"/>
      </clipPath>
      <clipPath clipPathUnits="userSpaceOnUse" id="clipPath4">
        <path d="M-122.6436 486.1204 L-122.6436 -193.8796 L191.3564 -193.8796 L191.3564 486.1204 L-122.6436 486.1204 Z"/>
      </clipPath>
      <clipPath clipPathUnits="userSpaceOnUse" id="clipPath5">
        <path d="M-136.3398 657.8324 L-136.3398 -22.1676 L177.6602 -22.1676 L177.6602 657.8324 L-136.3398 657.8324 Z"/>
      </clipPath>
    </defs>
    <g stroke-linecap="butt" transform="matrix(1,0,0,1,-248,162)" fill="white" text-rendering="geometricPrecision" shape-rendering="geometricPrecision" stroke="white" stroke-miterlimit="1.45">
      <rect fill="none" x="263.032" width="133.936" height="32.56" y="-16.28" clip-path="url(#clipPath2)"/>
    </g>
    <g stroke-linecap="butt" transform="matrix(1,0,0,1,-248,162)" fill="white" text-rendering="geometricPrecision" font-family="sans-serif" shape-rendering="geometricPrecision" stroke="white" stroke-miterlimit="1.45">
      <text x="278.5635" xml:space="preserve" y="4.1543" clip-path="url(#clipPath2)" stroke="none">Program Counter</text>
      <rect fill="none" x="426.968" width="81.2" height="32.56" y="-16.28" clip-path="url(#clipPath2)"/>
      <text x="442.0153" xml:space="preserve" y="4.1543" clip-path="url(#clipPath2)" stroke="none">Program</text>
      <rect fill="none" x="538.168" width="81.2" height="32.56" y="-16.28" clip-path="url(#clipPath2)"/>
      <text x="553.52" xml:space="preserve" y="4.1543" clip-path="url(#clipPath2)" stroke="none">Decoder</text>
      <rect fill="none" x="649.368" width="30.512" height="272.688" y="-136.344" clip-path="url(#clipPath2)"/>
    </g>
    <g stroke-linecap="butt" transform="matrix(0,1,-1,0,425.6084,136.3398)" fill="white" text-rendering="geometricPrecision" font-family="sans-serif" shape-rendering="geometricPrecision" stroke="white" stroke-miterlimit="1.45">
      <text x="2" xml:space="preserve" y="13.1387" clip-path="url(#clipPath3)" stroke="none">Fence 1</text>
    </g>
    <g stroke-linecap="butt" transform="matrix(1,0,0,1,-248,162)" fill="white" text-rendering="geometricPrecision" shape-rendering="geometricPrecision" stroke="white" stroke-miterlimit="1.45">
      <rect fill="none" x="709.88" width="30.512" height="210.224" y="-105.112" clip-path="url(#clipPath2)"/>
    </g>
    <g stroke-linecap="butt" transform="matrix(0,1,-1,0,486.1204,122.6436)" fill="white" text-rendering="geometricPrecision" font-family="sans-serif" shape-rendering="geometricPrecision" stroke="white" stroke-miterlimit="1.45">
      <text x="2" xml:space="preserve" y="13.1387" clip-path="url(#clipPath4)" stroke="none">Register File</text>
    </g>
    <g stroke-linecap="butt" transform="matrix(1,0,0,1,-248,162)" fill="white" text-rendering="geometricPrecision" shape-rendering="geometricPrecision" stroke="white" stroke-miterlimit="1.45">
      <rect fill="none" x="770.392" width="81.2" height="32.56" y="-63.96" clip-path="url(#clipPath2)"/>
      <text x="798.157" xml:space="preserve" y="-43.5257" clip-path="url(#clipPath2)" font-family="sans-serif" stroke="none">Test</text>
      <rect fill="none" x="770.392" width="81.2" height="32.56" y="-16.28" clip-path="url(#clipPath2)"/>
      <text x="799.1531" xml:space="preserve" y="4.1543" clip-path="url(#clipPath2)" font-family="sans-serif" stroke="none">ALU</text>
      <rect fill="none" x="770.392" width="81.2" height="32.56" y="31.4" clip-path="url(#clipPath2)"/>
      <text x="786.5906" xml:space="preserve" y="51.8343" clip-path="url(#clipPath2)" font-family="sans-serif" stroke="none">Memory</text>
      <rect fill="none" x="881.592" width="30.512" height="272.688" y="-136.344" clip-path="url(#clipPath2)"/>
    </g>
    <g stroke-linecap="butt" transform="matrix(0,1,-1,0,657.8324,136.3398)" fill="white" text-rendering="geometricPrecision" font-family="sans-serif" shape-rendering="geometricPrecision" stroke="white" stroke-miterlimit="1.45">
      <text x="2" xml:space="preserve" y="13.1387" clip-path="url(#clipPath5)" stroke="none">Fence 2</text>
    </g>
    <g stroke-linecap="butt" transform="matrix(1,0,0,1,-248,162)" fill="white" text-rendering="geometricPrecision" shape-rendering="geometricPrecision" stroke="white" stroke-miterlimit="1.45">
      <path fill="none" d="M396.968 0 L418.9387 0" clip-path="url(#clipPath2)"/>
      <path d="M426.9387 0 L414.9387 -5 L417.9387 0 L414.9387 5 Z" clip-path="url(#clipPath2)" stroke="none"/>
      <path fill="none" d="M508.168 0 L530.1387 0" clip-path="url(#clipPath2)"/>
      <path d="M538.1387 0 L526.1387 -5 L529.1387 0 L526.1387 5 Z" clip-path="url(#clipPath2)" stroke="none"/>
      <path fill="none" d="M619.368 8.8533 L641.3387 8.8533" clip-path="url(#clipPath2)"/>
      <path d="M649.3387 8.8533 L637.3387 3.8533 L640.3387 8.8533 L637.3387 13.8533 Z" clip-path="url(#clipPath2)" stroke="none"/>
      <path fill="none" d="M619.368 0 L641.3387 0" clip-path="url(#clipPath2)"/>
      <path d="M649.3387 0 L637.3387 -5 L640.3387 0 L637.3387 5 Z" clip-path="url(#clipPath2)" stroke="none"/>
      <path fill="none" d="M619.368 -8.8533 L641.3387 -8.8533" clip-path="url(#clipPath2)"/>
      <path d="M649.3387 -8.8533 L637.3387 -13.8533 L640.3387 -8.8533 L637.3387 -3.8533 Z" clip-path="url(#clipPath2)" stroke="none"/>
      <path fill="none" d="M679.88 0 L701.8507 0" clip-path="url(#clipPath2)"/>
      <path d="M709.8507 0 L697.8507 -5 L700.8507 0 L697.8507 5 Z" clip-path="url(#clipPath2)" stroke="none"/>
      <path fill="none" d="M679.88 -128.786 L810.992 -128.786 L810.992 -71.9917" clip-path="url(#clipPath2)"/>
      <path d="M810.992 -63.9917 L815.992 -75.9917 L810.992 -72.9917 L805.992 -75.9917 Z" clip-path="url(#clipPath2)" stroke="none"/>
      <path fill="none" d="M740.392 -47.68 L762.3627 -47.68" clip-path="url(#clipPath2)"/>
      <path d="M770.3627 -47.68 L758.3627 -52.68 L761.3627 -47.68 L758.3627 -42.68 Z" clip-path="url(#clipPath2)" stroke="none"/>
      <path fill="none" d="M679.88 -119.67 L755.392 -119.67 L755.392 -6.64 L762.3627 -6.64" clip-path="url(#clipPath2)"/>
      <path d="M770.3627 -6.64 L758.3627 -11.64 L761.3627 -6.64 L758.3627 -1.64 Z" clip-path="url(#clipPath2)" stroke="none"/>
      <path fill="none" d="M740.392 6.64 L762.3627 6.64" clip-path="url(#clipPath2)"/>
      <path d="M770.3627 6.64 L758.3627 1.64 L761.3627 6.64 L758.3627 11.64 Z" clip-path="url(#clipPath2)" stroke="none"/>
      <path fill="none" d="M679.88 119.67 L810.992 119.67 L810.992 71.96" clip-path="url(#clipPath2)"/>
      <path d="M810.992 63.96 L805.992 75.96 L810.992 72.96 L815.992 75.96 Z" clip-path="url(#clipPath2)" stroke="none"/>
      <path fill="none" d="M740.392 47.68 L762.3627 47.68" clip-path="url(#clipPath2)"/>
      <path d="M770.3627 47.68 L758.3627 42.68 L761.3627 47.68 L758.3627 52.68 Z" clip-path="url(#clipPath2)" stroke="none"/>
      <path fill="none" d="M679.88 128.786 L873.5427 128.786" clip-path="url(#clipPath2)"/>
      <path d="M881.5427 128.786 L869.5427 123.786 L872.5427 128.786 L869.5427 133.786 Z" clip-path="url(#clipPath2)" stroke="none"/>
      <path fill="none" d="M851.592 -47.68 L873.5627 -47.68" clip-path="url(#clipPath2)"/>
      <path d="M881.5627 -47.68 L869.5627 -52.68 L872.5627 -47.68 L869.5627 -42.68 Z" clip-path="url(#clipPath2)" stroke="none"/>
      <path fill="none" d="M851.592 0 L873.5627 0" clip-path="url(#clipPath2)"/>
      <path d="M881.5627 0 L869.5627 -5 L872.5627 0 L869.5627 5 Z" clip-path="url(#clipPath2)" stroke="none"/>
      <path fill="none" d="M851.592 47.68 L873.5627 47.68" clip-path="url(#clipPath2)"/>
      <path d="M881.5627 47.68 L869.5627 42.68 L872.5627 47.68 L869.5627 52.68 Z" clip-path="url(#clipPath2)" stroke="none"/>
      <path fill="none" d="M881.5576 88.036 L748.392 88.036" clip-path="url(#clipPath2)"/>
      <path d="M740.392 88.036 L752.392 93.036 L749.392 88.036 L752.392 83.036 Z" clip-path="url(#clipPath2)" stroke="none"/>
      <path fill="none" d="M896.848 -136.3831 L896.848 -146.344 L330 -146.344 L330 -24.3118" clip-path="url(#clipPath2)"/>
      <path d="M330 -16.3118 L335 -28.3118 L330 -25.3118 L325 -28.3118 Z" clip-path="url(#clipPath2)" stroke="none"/>
    </g>
  </g>
</svg>
