<?xml version="1.0" encoding="UTF-8"?><svg xmlns="http://www.w3.org/2000/svg" xmlns:xlink="http://www.w3.org/1999/xlink" fill-opacity="1" color-rendering="auto" color-interpolation="auto" text-rendering="auto" stroke="black" stroke-linecap="square" width="728" stroke-miterlimit="10" shape-rendering="auto" stroke-opacity="1" fill="black" stroke-dasharray="none" font-weight="normal" stroke-width="1" height="317" font-family="'Dialog'" font-style="normal" stroke-linejoin="miter" font-size="12px" stroke-dashoffset="0" image-rendering="auto">
  <!--Generated by ySVG 2.6-->
  <defs id="genericDefs"/>
  <g>
    <defs id="defs1">
      <clipPath clipPathUnits="userSpaceOnUse" id="clipPath1">
        <path d="M0 0 L728 0 L728 317 L0 317 L0 0 Z"/>
      </clipPath>
      <clipPath clipPathUnits="userSpaceOnUse" id="clipPath2">
        <path d="M248 -165 L976 -165 L976 152 L248 152 L248 -165 Z"/>
      </clipPath>
      <clipPath clipPathUnits="userSpaceOnUse" id="clipPath3">
        <path d="M-139.3398 425.6084 L-139.3398 -302.3916 L177.6602 -302.3916 L177.6602 425.6084 L-139.3398 425.6084 Z"/>
      </clipPath>
      <clipPath clipPathUnits="userSpaceOnUse" id="clipPath4">
        <path d="M-125.6436 486.1204 L-125.6436 -241.8796 L191.3564 -241.8796 L191.3564 486.1204 L-125.6436 486.1204 Z"/>
      </clipPath>
      <clipPath clipPathUnits="userSpaceOnUse" id="clipPath5">
        <path d="M-139.3398 705.8324 L-139.3398 -22.1676 L177.6602 -22.1676 L177.6602 705.8324 L-139.3398 705.8324 Z"/>
      </clipPath>
      <clipPath clipPathUnits="userSpaceOnUse" id="clipPath6">
        <path d="M-115.1523 540.3764 L-115.1523 -187.6236 L201.8477 -187.6236 L201.8477 540.3764 L-115.1523 540.3764 Z"/>
      </clipPath>
    </defs>
    <g stroke-linecap="butt" transform="matrix(1,0,0,1,-248,165)" fill="white" text-rendering="geometricPrecision" shape-rendering="geometricPrecision" stroke="white" stroke-miterlimit="1.45">
      <rect fill="none" x="263.032" width="133.936" height="32.56" y="-16.28" clip-path="url(#clipPath2)"/>
    </g>
    <g stroke-linecap="butt" transform="matrix(1,0,0,1,-248,165)" fill="white" text-rendering="geometricPrecision" font-family="sans-serif" shape-rendering="geometricPrecision" stroke="white" stroke-miterlimit="1.45">
      <text x="278.5635" xml:space="preserve" y="4.1543" clip-path="url(#clipPath2)" stroke="none">Program Counter</text>
      <rect fill="none" x="426.968" width="81.2" height="32.56" y="-16.28" clip-path="url(#clipPath2)"/>
      <text x="442.0153" xml:space="preserve" y="4.1543" clip-path="url(#clipPath2)" stroke="none">Program</text>
      <rect fill="none" x="538.168" width="81.2" height="32.56" y="-16.28" clip-path="url(#clipPath2)"/>
      <text x="553.52" xml:space="preserve" y="4.1543" clip-path="url(#clipPath2)" stroke="none">Decoder</text>
      <rect fill="none" x="649.368" width="30.512" height="272.688" y="-136.344" clip-path="url(#clipPath2)"/>
    </g>
    <g stroke-linecap="butt" transform="matrix(0,1,-1,0,425.6084,139.3398)" fill="white" text-rendering="geometricPrecision" font-family="sans-serif" shape-rendering="geometricPrecision" stroke="white" stroke-miterlimit="1.45">
      <text x="2" xml:space="preserve" y="13.1387" clip-path="url(#clipPath3)" stroke="none">Fence 1</text>
    </g>
    <g stroke-linecap="butt" transform="matrix(1,0,0,1,-248,165)" fill="white" text-rendering="geometricPrecision" shape-rendering="geometricPrecision" stroke="white" stroke-miterlimit="1.45">
      <rect fill="none" x="709.88" width="30.512" height="210.224" y="-105.112" clip-path="url(#clipPath2)"/>
    </g>
    <g stroke-linecap="butt" transform="matrix(0,1,-1,0,486.1204,125.6436)" fill="white" text-rendering="geometricPrecision" font-family="sans-serif" shape-rendering="geometricPrecision" stroke="white" stroke-miterlimit="1.45">
      <text x="2" xml:space="preserve" y="13.1387" clip-path="url(#clipPath4)" stroke="none">Register File</text>
    </g>
    <g stroke-linecap="butt" transform="matrix(1,0,0,1,-248,165)" fill="white" text-rendering="geometricPrecision" shape-rendering="geometricPrecision" stroke="white" stroke-miterlimit="1.45">
      <rect fill="none" x="818.392" width="81.2" height="32.56" y="-63.96" clip-path="url(#clipPath2)"/>
      <text x="846.157" xml:space="preserve" y="-43.5257" clip-path="url(#clipPath2)" font-family="sans-serif" stroke="none">Test</text>
      <rect fill="none" x="818.392" width="81.2" height="32.56" y="-16.28" clip-path="url(#clipPath2)"/>
      <text x="847.1531" xml:space="preserve" y="4.1543" clip-path="url(#clipPath2)" font-family="sans-serif" stroke="none">ALU</text>
      <rect fill="none" x="818.392" width="81.2" height="32.56" y="31.4" clip-path="url(#clipPath2)"/>
      <text x="834.5906" xml:space="preserve" y="51.8343" clip-path="url(#clipPath2)" font-family="sans-serif" stroke="none">Memory</text>
      <rect fill="none" x="929.592" width="30.512" height="272.688" y="-136.344" clip-path="url(#clipPath2)"/>
    </g>
    <g stroke-linecap="butt" transform="matrix(0,1,-1,0,705.8324,139.3398)" fill="white" text-rendering="geometricPrecision" font-family="sans-serif" shape-rendering="geometricPrecision" stroke="white" stroke-miterlimit="1.45">
      <text x="2" xml:space="preserve" y="13.1387" clip-path="url(#clipPath5)" stroke="none">Fence 2</text>
    </g>
    <g stroke-linecap="butt" transform="matrix(1,0,0,1,-248,165)" fill="white" text-rendering="geometricPrecision" shape-rendering="geometricPrecision" stroke="white" stroke-miterlimit="1.45">
      <rect fill="none" x="764.136" width="30.512" height="121.392" y="-60.696" clip-path="url(#clipPath2)"/>
    </g>
    <g stroke-linecap="butt" transform="matrix(0,1,-1,0,540.3764,115.1523)" fill="white" text-rendering="geometricPrecision" font-family="sans-serif" shape-rendering="geometricPrecision" stroke="white" stroke-miterlimit="1.45">
      <text x="2" xml:space="preserve" y="13.1387" clip-path="url(#clipPath6)" stroke="none">Forwarding Unit</text>
    </g>
    <g stroke-linecap="butt" transform="matrix(1,0,0,1,-248,165)" fill="white" text-rendering="geometricPrecision" shape-rendering="geometricPrecision" stroke="white" stroke-miterlimit="1.45">
      <path fill="none" d="M396.968 0 L418.9387 0" clip-path="url(#clipPath2)"/>
      <path d="M426.9387 0 L414.9387 -5 L417.9387 0 L414.9387 5 Z" clip-path="url(#clipPath2)" stroke="none"/>
      <path fill="none" d="M508.168 0 L530.1387 0" clip-path="url(#clipPath2)"/>
      <path d="M538.1387 0 L526.1387 -5 L529.1387 0 L526.1387 5 Z" clip-path="url(#clipPath2)" stroke="none"/>
      <path fill="none" d="M619.368 8.8533 L641.3387 8.8533" clip-path="url(#clipPath2)"/>
      <path d="M649.3387 8.8533 L637.3387 3.8533 L640.3387 8.8533 L637.3387 13.8533 Z" clip-path="url(#clipPath2)" stroke="none"/>
      <path fill="none" d="M619.368 0 L641.3387 0" clip-path="url(#clipPath2)"/>
      <path d="M649.3387 0 L637.3387 -5 L640.3387 0 L637.3387 5 Z" clip-path="url(#clipPath2)" stroke="none"/>
      <path fill="none" d="M619.368 -8.8533 L641.3387 -8.8533" clip-path="url(#clipPath2)"/>
      <path d="M649.3387 -8.8533 L637.3387 -13.8533 L640.3387 -8.8533 L637.3387 -3.8533 Z" clip-path="url(#clipPath2)" stroke="none"/>
      <path fill="none" d="M679.88 0 L692.08 0 L701.8452 0" clip-path="url(#clipPath2)"/>
      <path d="M709.8452 0 L697.8452 -5 L700.8452 0 L697.8452 5 Z" clip-path="url(#clipPath2)" stroke="none"/>
      <path fill="none" d="M679.88 -128.786 L858.992 -128.786 L858.992 -71.9917" clip-path="url(#clipPath2)"/>
      <path d="M858.992 -63.9917 L863.992 -75.9917 L858.992 -72.9917 L853.992 -75.9917 Z" clip-path="url(#clipPath2)" stroke="none"/>
      <path fill="none" d="M679.88 -119.67 L803.392 -119.67 L803.392 -6.64 L810.3627 -6.64" clip-path="url(#clipPath2)"/>
      <path d="M818.3627 -6.64 L806.3627 -11.64 L809.3627 -6.64 L806.3627 -1.64 Z" clip-path="url(#clipPath2)" stroke="none"/>
      <path fill="none" d="M679.88 119.67 L858.992 119.67 L858.992 71.96" clip-path="url(#clipPath2)"/>
      <path d="M858.992 63.96 L853.992 75.96 L858.992 72.96 L863.992 75.96 Z" clip-path="url(#clipPath2)" stroke="none"/>
      <path fill="none" d="M679.88 128.786 L921.5615 128.786" clip-path="url(#clipPath2)"/>
      <path d="M929.5615 128.786 L917.5615 123.786 L920.5615 128.786 L917.5615 133.786 Z" clip-path="url(#clipPath2)" stroke="none"/>
      <path fill="none" d="M899.592 -47.68 L921.5627 -47.68" clip-path="url(#clipPath2)"/>
      <path d="M929.5627 -47.68 L917.5627 -52.68 L920.5627 -47.68 L917.5627 -42.68 Z" clip-path="url(#clipPath2)" stroke="none"/>
      <path fill="none" d="M899.592 0 L921.5627 0" clip-path="url(#clipPath2)"/>
      <path d="M929.5627 0 L917.5627 -5 L920.5627 0 L917.5627 5 Z" clip-path="url(#clipPath2)" stroke="none"/>
      <path fill="none" d="M899.592 47.68 L921.5627 47.68" clip-path="url(#clipPath2)"/>
      <path d="M929.5627 47.68 L917.5627 42.68 L920.5627 47.68 L917.5627 52.68 Z" clip-path="url(#clipPath2)" stroke="none"/>
      <path fill="none" d="M929.5458 88.036 L748.392 88.036" clip-path="url(#clipPath2)"/>
      <path d="M740.392 88.036 L752.392 93.036 L749.392 88.036 L752.392 83.036 Z" clip-path="url(#clipPath2)" stroke="none"/>
      <path fill="none" d="M944.848 -136.344 L944.848 -149.024 L330 -149.024 L330 -24.28" clip-path="url(#clipPath2)"/>
      <path d="M330 -16.28 L335 -28.28 L330 -25.28 L325 -28.28 Z" clip-path="url(#clipPath2)" stroke="none"/>
      <path fill="none" d="M929.6008 88.544 L779.392 88.544 L779.392 68.696" clip-path="url(#clipPath2)"/>
      <path d="M779.392 60.696 L774.392 72.696 L779.392 69.696 L784.392 72.696 Z" clip-path="url(#clipPath2)" stroke="none"/>
      <path fill="none" d="M740.3998 39.392 L756.1583 39.392" clip-path="url(#clipPath2)"/>
      <path d="M764.1583 39.392 L752.1583 34.392 L755.1583 39.392 L752.1583 44.392 Z" clip-path="url(#clipPath2)" stroke="none"/>
      <path fill="none" d="M740.392 0 L756.136 0" clip-path="url(#clipPath2)"/>
      <path d="M764.136 0 L752.136 -5 L755.136 0 L752.136 5 Z" clip-path="url(#clipPath2)" stroke="none"/>
      <path fill="none" d="M740.405 -41.7088 L756.1749 -41.7088" clip-path="url(#clipPath2)"/>
      <path d="M764.1749 -41.7088 L752.1749 -46.7088 L755.1749 -41.7088 L752.1749 -36.7088 Z" clip-path="url(#clipPath2)" stroke="none"/>
      <path fill="none" d="M794.6198 -47.68 L810.392 -47.68" clip-path="url(#clipPath2)"/>
      <path d="M818.392 -47.68 L806.392 -52.68 L809.392 -47.68 L806.392 -42.68 Z" clip-path="url(#clipPath2)" stroke="none"/>
      <path fill="none" d="M794.648 0 L810.3895 0" clip-path="url(#clipPath2)"/>
      <path d="M818.3895 0 L806.3895 -5 L809.3895 0 L806.3895 5 Z" clip-path="url(#clipPath2)" stroke="none"/>
      <path fill="none" d="M794.6141 47.68 L810.392 47.68" clip-path="url(#clipPath2)"/>
      <path d="M818.392 47.68 L806.392 42.68 L809.392 47.68 L806.392 52.68 Z" clip-path="url(#clipPath2)" stroke="none"/>
    </g>
  </g>
</svg>
