<?xml version="1.0" encoding="UTF-8"?><svg xmlns="http://www.w3.org/2000/svg" xmlns:xlink="http://www.w3.org/1999/xlink" fill-opacity="1" color-rendering="auto" color-interpolation="auto" text-rendering="auto" stroke="black" stroke-linecap="square" width="600" stroke-miterlimit="10" shape-rendering="auto" stroke-opacity="1" fill="black" stroke-dasharray="none" font-weight="normal" stroke-width="1" height="325" font-family="'Dialog'" font-style="normal" stroke-linejoin="miter" font-size="12px" stroke-dashoffset="0" image-rendering="auto">
  <!--Generated by ySVG 2.6-->
  <defs id="genericDefs"/>
  <g>
    <defs id="defs1">
      <clipPath clipPathUnits="userSpaceOnUse" id="clipPath1">
        <path d="M0 0 L600 0 L600 325 L0 325 L0 0 Z"/>
      </clipPath>
      <clipPath clipPathUnits="userSpaceOnUse" id="clipPath2">
        <path d="M-1214 82 L-218 82 L-218 621.5 L-1214 621.5 L-1214 82 Z"/>
      </clipPath>
      <clipPath clipPathUnits="userSpaceOnUse" id="clipPath3">
        <path d="M-113.2021 57.6406 L-113.2021 -938.3594 L426.2979 -938.3594 L426.2979 57.6406 L-113.2021 57.6406 Z"/>
      </clipPath>
      <clipPath clipPathUnits="userSpaceOnUse" id="clipPath4">
        <path d="M-142.5088 169.7656 L-142.5088 -826.2344 L396.9912 -826.2344 L396.9912 169.7656 L-142.5088 169.7656 Z"/>
      </clipPath>
      <clipPath clipPathUnits="userSpaceOnUse" id="clipPath5">
        <path d="M-142.8457 965.5156 L-142.8457 -30.4844 L396.6543 -30.4844 L396.6543 965.5156 L-142.8457 965.5156 Z"/>
      </clipPath>
    </defs>
    <g stroke-linecap="butt" transform="matrix(0.6024,0,0,0.6024,731.3253,-49.3976)" fill="white" text-rendering="geometricPrecision" shape-rendering="geometricPrecision" stroke="white" stroke-miterlimit="1.45">
      <rect fill="none" x="-1125" width="805.2187" height="82.7344" y="525" clip-path="url(#clipPath2)"/>
    </g>
    <g stroke-linecap="butt" font-size="20px" transform="matrix(0.6024,0,0,0.6024,731.3253,-49.3976)" fill="white" text-rendering="geometricPrecision" font-family="sans-serif" shape-rendering="geometricPrecision" stroke="white" stroke-miterlimit="1.45">
      <text x="-763.0596" xml:space="preserve" y="573.291" clip-path="url(#clipPath2)" stroke="none">Memory</text>
      <rect fill="none" x="-1198.3594" width="56.7187" height="375.2344" y="97.3828" clip-path="url(#clipPath2)"/>
    </g>
    <g stroke-linecap="butt" font-size="20px" transform="matrix(0,0.6024,-0.6024,0,34.7233,68.1941)" fill="white" text-rendering="geometricPrecision" font-family="sans-serif" shape-rendering="geometricPrecision" stroke="white" stroke-miterlimit="1.45">
      <text x="2" xml:space="preserve" y="20.5645" clip-path="url(#clipPath3)" stroke="none">Instruction Cache</text>
    </g>
    <g stroke-linecap="butt" transform="matrix(0.6024,0,0,0.6024,731.3253,-49.3976)" fill="white" text-rendering="geometricPrecision" shape-rendering="geometricPrecision" stroke="white" stroke-miterlimit="1.45">
      <rect fill="none" x="-1086.2344" width="56.7187" height="375.2344" y="97.3828" clip-path="url(#clipPath2)"/>
    </g>
    <g stroke-linecap="butt" font-size="20px" transform="matrix(0,0.6024,-0.6024,0,102.2684,85.8487)" fill="white" text-rendering="geometricPrecision" font-family="sans-serif" shape-rendering="geometricPrecision" stroke="white" stroke-miterlimit="1.45">
      <text x="2" xml:space="preserve" y="20.5645" clip-path="url(#clipPath4)" stroke="none"> Decode (1)</text>
    </g>
    <g stroke-linecap="butt" transform="matrix(0.6024,0,0,0.6024,731.3253,-49.3976)" fill="white" text-rendering="geometricPrecision" shape-rendering="geometricPrecision" stroke="white" stroke-miterlimit="1.45">
      <rect fill="none" x="-974.1094" width="208.2187" height="82.7344" y="138.6328" clip-path="url(#clipPath2)"/>
      <text x="-944.2285" font-size="20px" y="186.9238" clip-path="url(#clipPath2)" font-family="sans-serif" stroke="none" xml:space="preserve">Decode/AG (U)</text>
      <rect fill="none" x="-974.1094" width="208.2187" height="82.7344" y="348.6328" clip-path="url(#clipPath2)"/>
      <text x="-943.75" font-size="20px" y="396.9238" clip-path="url(#clipPath2)" font-family="sans-serif" stroke="none" xml:space="preserve">Decode/AG (V)</text>
      <rect fill="none" x="-912.1094" width="504.2187" height="61.7344" y="254.1328" clip-path="url(#clipPath2)"/>
      <text x="-706.8311" font-size="20px" y="291.9238" clip-path="url(#clipPath2)" font-family="sans-serif" stroke="none" xml:space="preserve">Registers</text>
      <rect fill="none" x="-710.4844" width="145.2187" height="82.7344" y="138.6328" clip-path="url(#clipPath2)"/>
      <text x="-696.4736" font-size="20px" y="186.9238" clip-path="url(#clipPath2)" font-family="sans-serif" stroke="none" xml:space="preserve">Execute (U)</text>
      <rect fill="none" x="-710.4844" width="145.2187" height="82.7344" y="348.6328" clip-path="url(#clipPath2)"/>
      <text x="-695.9951" font-size="20px" y="396.9238" clip-path="url(#clipPath2)" font-family="sans-serif" stroke="none" xml:space="preserve">Execute (V)</text>
      <rect fill="none" x="-509.8594" width="165.2187" height="82.7344" y="348.6328" clip-path="url(#clipPath2)"/>
      <text x="-495.6875" font-size="20px" y="396.9238" clip-path="url(#clipPath2)" font-family="sans-serif" stroke="none" xml:space="preserve">Writeback (V)</text>
      <rect fill="none" x="-290.4844" width="56.7187" height="375.2344" y="97.3828" clip-path="url(#clipPath2)"/>
    </g>
    <g stroke-linecap="butt" font-size="20px" transform="matrix(0,0.6024,-0.6024,0,581.6359,86.0516)" fill="white" text-rendering="geometricPrecision" font-family="sans-serif" shape-rendering="geometricPrecision" stroke="white" stroke-miterlimit="1.45">
      <text x="2" xml:space="preserve" y="20.5645" clip-path="url(#clipPath5)" stroke="none">Data Cache</text>
    </g>
    <g stroke-linecap="butt" transform="matrix(0.6024,0,0,0.6024,731.3253,-49.3976)" fill="white" text-rendering="geometricPrecision" shape-rendering="geometricPrecision" stroke="white" stroke-miterlimit="1.45">
      <rect fill="none" x="-510.4844" width="165.2187" height="82.7344" y="138.6328" clip-path="url(#clipPath2)"/>
      <text x="-496.791" font-size="20px" y="186.9238" clip-path="url(#clipPath2)" font-family="sans-serif" stroke="none" xml:space="preserve">Writeback (U)</text>
      <path fill="none" d="M-1132.9999 568.3696 L-1170 568.55 L-1170 480.6172" clip-path="url(#clipPath2)"/>
      <path d="M-1125 568.3306 L-1137.0243 563.3891 L-1133.9999 568.3745 L-1136.9755 573.389 Z" clip-path="url(#clipPath2)" stroke="none"/>
      <path d="M-1170 472.6172 L-1175 484.6172 L-1170 481.6172 L-1165 484.6172 Z" clip-path="url(#clipPath2)" stroke="none"/>
      <path fill="none" d="M-1141.6406 285 L-1094.2344 285" clip-path="url(#clipPath2)"/>
      <path d="M-1086.2344 285 L-1098.2344 280 L-1095.2344 285 L-1098.2344 290 Z" clip-path="url(#clipPath2)" stroke="none"/>
      <path fill="none" d="M-1029.4832 181.3103 L-982.1091 180.9211" clip-path="url(#clipPath2)"/>
      <path d="M-974.1094 180.8554 L-986.15 175.9541 L-983.1091 180.9293 L-986.0679 185.9538 Z" clip-path="url(#clipPath2)" stroke="none"/>
      <path fill="none" d="M-1029.5575 393.6562 L-982.1073 392.5688" clip-path="url(#clipPath2)"/>
      <path d="M-974.1094 392.3856 L-986.2208 387.6618 L-983.107 392.5918 L-985.9917 397.6591 Z" clip-path="url(#clipPath2)" stroke="none"/>
    </g>
    <g stroke-linecap="butt" transform="matrix(0.6024,0,0,0.6024,731.3253,-49.3976)" fill="white" text-rendering="geometricPrecision" shape-rendering="geometricPrecision" stroke="white" stroke-miterlimit="1.45">
      <path fill="none" d="M-870 221.3672 L-876.25 236.3672 L-871.5 233.5172 L-871.5 254.1375 L-868.5 254.1375 L-868.5 233.5172 L-863.75 236.3672 L-870 221.3672 Z" clip-path="url(#clipPath2)"/>
    </g>
    <g stroke-linecap="butt" transform="matrix(0.6024,0,0,0.6024,731.3253,-49.3976)" fill="white" text-rendering="geometricPrecision" shape-rendering="geometricPrecision" stroke="white" stroke-miterlimit="1.45">
      <path fill="none" d="M-871.5 315.8542 L-871.5 336.4828 L-876.25 333.6328 L-870 348.6328 L-863.75 333.6328 L-868.5 336.4828 L-868.5 315.8542 Z" clip-path="url(#clipPath2)"/>
    </g>
    <g stroke-linecap="butt" transform="matrix(0.6024,0,0,0.6024,731.3253,-49.3976)" fill="white" text-rendering="geometricPrecision" shape-rendering="geometricPrecision" stroke="white" stroke-miterlimit="1.45">
      <path fill="none" d="M-765.8906 180 L-718.4844 180" clip-path="url(#clipPath2)"/>
      <path d="M-710.4844 180 L-722.4844 175 L-719.4844 180 L-722.4844 185 Z" clip-path="url(#clipPath2)" stroke="none"/>
      <path fill="none" d="M-765.8906 390 L-718.4844 390" clip-path="url(#clipPath2)"/>
      <path d="M-710.4844 390 L-722.4844 385 L-719.4844 390 L-722.4844 395 Z" clip-path="url(#clipPath2)" stroke="none"/>
      <path fill="none" d="M-565.2656 390 L-517.8594 390" clip-path="url(#clipPath2)"/>
      <path d="M-509.8594 390 L-521.8594 385 L-518.8594 390 L-521.8594 395 Z" clip-path="url(#clipPath2)" stroke="none"/>
    </g>
    <g stroke-linecap="butt" transform="matrix(0.6024,0,0,0.6024,731.3253,-49.3976)" fill="white" text-rendering="geometricPrecision" shape-rendering="geometricPrecision" stroke="white" stroke-miterlimit="1.45">
      <path fill="none" d="M-427.25 315.8532 L-433.5 330.8532 L-428.75 328.0032 L-428.75 328.0032 L-428.75 348.6328 L-425.75 348.6328 L-425.75 328.0032 L-425.75 328.0032 L-421 330.8532 L-427.25 315.8532 Z" clip-path="url(#clipPath2)"/>
    </g>
    <g stroke-linecap="butt" transform="matrix(0.6024,0,0,0.6024,731.3253,-49.3976)" fill="white" text-rendering="geometricPrecision" shape-rendering="geometricPrecision" stroke="white" stroke-miterlimit="1.45">
      <path fill="none" d="M-311.7813 567.8298 L-264 568 L-263.4211 480.617" clip-path="url(#clipPath2)"/>
      <path d="M-319.7812 567.8013 L-307.7991 572.8439 L-310.7813 567.8333 L-307.7635 562.8441 Z" clip-path="url(#clipPath2)" stroke="none"/>
      <path d="M-263.368 472.6172 L-268.4474 484.5838 L-263.4277 481.617 L-258.4477 484.6501 Z" clip-path="url(#clipPath2)" stroke="none"/>
    </g>
    <g stroke-linecap="butt" transform="matrix(0.6024,0,0,0.6024,731.3253,-49.3976)" fill="white" text-rendering="geometricPrecision" shape-rendering="geometricPrecision" stroke="white" stroke-miterlimit="1.45">
      <path fill="none" d="M-637.875 431.3672 L-646 450.8672 L-640.875 447.7922 L-640.875 456.55 L-640.875 459.55 L-306.8756 459.55 L-309.9506 464.675 L-290.4506 456.55 L-309.9506 448.425 L-306.8756 453.55 L-634.875 453.55 L-634.875 447.7922 L-629.75 450.8672 L-637.875 431.3672 Z" clip-path="url(#clipPath2)"/>
    </g>
    <g stroke-linecap="butt" transform="matrix(0.6024,0,0,0.6024,731.3253,-49.3976)" fill="white" text-rendering="geometricPrecision" shape-rendering="geometricPrecision" stroke="white" stroke-miterlimit="1.45">
      <path fill="none" d="M-630.4453 119.55 L-634.875 122.2078 L-634.875 119.55 ZM-309.9901 108.425 L-306.9151 113.55 L-640.875 113.55 L-640.875 116.55 L-640.875 122.2078 L-646 119.1328 L-637.875 138.6328 L-629.9238 119.55 L-306.9151 119.55 L-309.9901 124.675 L-290.4901 116.55 L-309.9901 108.425 Z" clip-path="url(#clipPath2)"/>
    </g>
    <g stroke-linecap="butt" transform="matrix(0.6024,0,0,0.6024,731.3253,-49.3976)" fill="white" text-rendering="geometricPrecision" shape-rendering="geometricPrecision" stroke="white" stroke-miterlimit="1.45">
      <path fill="none" d="M-565.2656 180 L-518.4844 180" clip-path="url(#clipPath2)"/>
      <path d="M-510.4844 180 L-522.4844 175 L-519.4844 180 L-522.4844 185 Z" clip-path="url(#clipPath2)" stroke="none"/>
    </g>
    <g stroke-linecap="butt" transform="matrix(0.6024,0,0,0.6024,731.3253,-49.3976)" fill="white" text-rendering="geometricPrecision" shape-rendering="geometricPrecision" stroke="white" stroke-miterlimit="1.45">
      <path fill="none" d="M-429.375 221.3672 L-429.375 241.9968 L-434.125 239.1468 L-427.875 254.1468 L-421.625 239.1468 L-426.375 241.9968 L-426.375 221.3672 Z" clip-path="url(#clipPath2)"/>
    </g>
  </g>
</svg>
