<?xml version="1.0" encoding="UTF-8" standalone="no"?>
<!DOCTYPE svg PUBLIC "-//W3C//DTD SVG 1.1//EN"
 "http://www.w3.org/Graphics/SVG/1.1/DTD/svg11.dtd">
<!-- Generated by graphviz version 2.43.0 (0)
 -->
<!-- Title: Heirarchy Pages: 1 -->
<svg width="489pt" height="427pt"
 viewBox="0.00 0.00 488.50 427.00" xmlns="http://www.w3.org/2000/svg" xmlns:xlink="http://www.w3.org/1999/xlink">
<g id="graph0" class="graph" transform="scale(1 1) rotate(0) translate(4 423)">
<title>Heirarchy</title>
<text text-anchor="middle" x="240.25" y="-7.8" font-family="Times,serif" font-size="14.00" fill="white">The Heirarchy of Algebraic Structures</text>
<!-- abelian -->
<g id="node1" class="node">
<title>abelian</title>
<polygon fill="none" stroke="white" points="245.5,-419 130.5,-419 130.5,-383 245.5,-383 245.5,-419"/>
<text text-anchor="middle" x="188" y="-397.3" font-family="Times,serif" font-size="14.00" fill="white">abelian group</text>
</g>
<!-- comm_monoid -->
<g id="node2" class="node">
<title>comm_monoid</title>
<polygon fill="none" stroke="white" points="337.5,-347 170.5,-347 170.5,-311 337.5,-311 337.5,-347"/>
<text text-anchor="middle" x="254" y="-325.3" font-family="Times,serif" font-size="14.00" fill="white">commutative monoid</text>
</g>
<!-- abelian&#45;&gt;comm_monoid -->
<g id="edge1" class="edge">
<title>abelian&#45;&gt;comm_monoid</title>
<path fill="none" stroke="white" d="M204.31,-382.7C212.31,-374.22 222.07,-363.86 230.82,-354.58"/>
<polygon fill="white" stroke="white" points="233.56,-356.78 237.87,-347.1 228.47,-351.98 233.56,-356.78"/>
</g>
<!-- group -->
<g id="node5" class="node">
<title>group</title>
<polygon fill="none" stroke="white" points="152.5,-347 93.5,-347 93.5,-311 152.5,-311 152.5,-347"/>
<text text-anchor="middle" x="123" y="-325.3" font-family="Times,serif" font-size="14.00" fill="white">group</text>
</g>
<!-- abelian&#45;&gt;group -->
<g id="edge2" class="edge">
<title>abelian&#45;&gt;group</title>
<path fill="none" stroke="white" d="M171.93,-382.7C164.06,-374.22 154.44,-363.86 145.83,-354.58"/>
<polygon fill="white" stroke="white" points="148.25,-352.05 138.88,-347.1 143.12,-356.81 148.25,-352.05"/>
</g>
<!-- monoid -->
<g id="node6" class="node">
<title>monoid</title>
<polygon fill="none" stroke="white" points="220.5,-275 151.5,-275 151.5,-239 220.5,-239 220.5,-275"/>
<text text-anchor="middle" x="186" y="-253.3" font-family="Times,serif" font-size="14.00" fill="white">monoid</text>
</g>
<!-- comm_monoid&#45;&gt;monoid -->
<g id="edge3" class="edge">
<title>comm_monoid&#45;&gt;monoid</title>
<path fill="none" stroke="white" d="M237.19,-310.7C228.87,-302.14 218.69,-291.66 209.61,-282.3"/>
<polygon fill="white" stroke="white" points="212.09,-279.84 202.62,-275.1 207.07,-284.72 212.09,-279.84"/>
</g>
<!-- unit_magma -->
<g id="node3" class="node">
<title>unit_magma</title>
<polygon fill="none" stroke="white" points="365.5,-203 250.5,-203 250.5,-167 365.5,-167 365.5,-203"/>
<text text-anchor="middle" x="308" y="-181.3" font-family="Times,serif" font-size="14.00" fill="white">unital magma</text>
</g>
<!-- magma -->
<g id="node11" class="node">
<title>magma</title>
<polygon fill="none" stroke="white" points="336.5,-131 267.5,-131 267.5,-95 336.5,-95 336.5,-131"/>
<text text-anchor="middle" x="302" y="-109.3" font-family="Times,serif" font-size="14.00" fill="white">magma</text>
</g>
<!-- unit_magma&#45;&gt;magma -->
<g id="edge15" class="edge">
<title>unit_magma&#45;&gt;magma</title>
<path fill="none" stroke="white" d="M306.52,-166.7C305.86,-158.98 305.06,-149.71 304.32,-141.11"/>
<polygon fill="white" stroke="white" points="307.81,-140.77 303.47,-131.1 300.83,-141.37 307.81,-140.77"/>
</g>
<!-- small_cat -->
<g id="node4" class="node">
<title>small_cat</title>
<polygon fill="none" stroke="white" points="122,-203 0,-203 0,-167 122,-167 122,-203"/>
<text text-anchor="middle" x="61" y="-181.3" font-family="Times,serif" font-size="14.00" fill="white">small category</text>
</g>
<!-- semigroupoid -->
<g id="node12" class="node">
<title>semigroupoid</title>
<polygon fill="none" stroke="white" points="243,-131 129,-131 129,-95 243,-95 243,-131"/>
<text text-anchor="middle" x="186" y="-109.3" font-family="Times,serif" font-size="14.00" fill="white">semigroupoid</text>
</g>
<!-- small_cat&#45;&gt;semigroupoid -->
<g id="edge16" class="edge">
<title>small_cat&#45;&gt;semigroupoid</title>
<path fill="none" stroke="white" d="M91.58,-166.88C108.07,-157.64 128.62,-146.13 146.34,-136.21"/>
<polygon fill="white" stroke="white" points="148.29,-139.13 155.3,-131.19 144.87,-133.02 148.29,-139.13"/>
</g>
<!-- group&#45;&gt;monoid -->
<g id="edge4" class="edge">
<title>group&#45;&gt;monoid</title>
<path fill="none" stroke="white" d="M138.57,-310.7C146.2,-302.22 155.52,-291.86 163.88,-282.58"/>
<polygon fill="white" stroke="white" points="166.52,-284.88 170.61,-275.1 161.31,-280.2 166.52,-284.88"/>
</g>
<!-- loop -->
<g id="node7" class="node">
<title>loop</title>
<polygon fill="none" stroke="white" points="335,-275 281,-275 281,-239 335,-239 335,-275"/>
<text text-anchor="middle" x="308" y="-253.3" font-family="Times,serif" font-size="14.00" fill="white">loop</text>
</g>
<!-- group&#45;&gt;loop -->
<g id="edge5" class="edge">
<title>group&#45;&gt;loop</title>
<path fill="none" stroke="white" d="M152.78,-314.42C155.55,-313.24 158.32,-312.08 161,-311 198.18,-296 241.43,-280.66 271.34,-270.36"/>
<polygon fill="white" stroke="white" points="272.62,-273.63 280.95,-267.08 270.35,-267 272.62,-273.63"/>
</g>
<!-- groupoid -->
<g id="node8" class="node">
<title>groupoid</title>
<polygon fill="none" stroke="white" points="117,-275 37,-275 37,-239 117,-239 117,-275"/>
<text text-anchor="middle" x="77" y="-253.3" font-family="Times,serif" font-size="14.00" fill="white">groupoid</text>
</g>
<!-- group&#45;&gt;groupoid -->
<g id="edge6" class="edge">
<title>group&#45;&gt;groupoid</title>
<path fill="none" stroke="white" d="M111.63,-310.7C106.28,-302.56 99.8,-292.69 93.89,-283.7"/>
<polygon fill="white" stroke="white" points="96.66,-281.54 88.24,-275.1 90.81,-285.38 96.66,-281.54"/>
</g>
<!-- monoid&#45;&gt;unit_magma -->
<g id="edge7" class="edge">
<title>monoid&#45;&gt;unit_magma</title>
<path fill="none" stroke="white" d="M215.84,-238.88C231.94,-229.64 252,-218.13 269.29,-208.21"/>
<polygon fill="white" stroke="white" points="271.11,-211.2 278.04,-203.19 267.63,-205.13 271.11,-211.2"/>
</g>
<!-- monoid&#45;&gt;small_cat -->
<g id="edge8" class="edge">
<title>monoid&#45;&gt;small_cat</title>
<path fill="none" stroke="white" d="M155.42,-238.88C138.93,-229.64 118.38,-218.13 100.66,-208.21"/>
<polygon fill="white" stroke="white" points="102.13,-205.02 91.7,-203.19 98.71,-211.13 102.13,-205.02"/>
</g>
<!-- semigroup -->
<g id="node9" class="node">
<title>semigroup</title>
<polygon fill="none" stroke="white" points="232,-203 140,-203 140,-167 232,-167 232,-203"/>
<text text-anchor="middle" x="186" y="-181.3" font-family="Times,serif" font-size="14.00" fill="white">semigroup</text>
</g>
<!-- monoid&#45;&gt;semigroup -->
<g id="edge9" class="edge">
<title>monoid&#45;&gt;semigroup</title>
<path fill="none" stroke="white" d="M186,-238.7C186,-230.98 186,-221.71 186,-213.11"/>
<polygon fill="white" stroke="white" points="189.5,-213.1 186,-203.1 182.5,-213.1 189.5,-213.1"/>
</g>
<!-- loop&#45;&gt;unit_magma -->
<g id="edge10" class="edge">
<title>loop&#45;&gt;unit_magma</title>
<path fill="none" stroke="white" d="M308,-238.7C308,-230.98 308,-221.71 308,-213.11"/>
<polygon fill="white" stroke="white" points="311.5,-213.1 308,-203.1 304.5,-213.1 311.5,-213.1"/>
</g>
<!-- quasigroup -->
<g id="node10" class="node">
<title>quasigroup</title>
<polygon fill="none" stroke="white" points="480.5,-203 383.5,-203 383.5,-167 480.5,-167 480.5,-203"/>
<text text-anchor="middle" x="432" y="-181.3" font-family="Times,serif" font-size="14.00" fill="white">quasigroup</text>
</g>
<!-- loop&#45;&gt;quasigroup -->
<g id="edge11" class="edge">
<title>loop&#45;&gt;quasigroup</title>
<path fill="none" stroke="white" d="M335.21,-240.64C352.12,-231.09 374.14,-218.67 392.9,-208.07"/>
<polygon fill="white" stroke="white" points="394.82,-211.01 401.81,-203.04 391.38,-204.91 394.82,-211.01"/>
</g>
<!-- groupoid&#45;&gt;small_cat -->
<g id="edge12" class="edge">
<title>groupoid&#45;&gt;small_cat</title>
<path fill="none" stroke="white" d="M73.04,-238.7C71.28,-230.98 69.16,-221.71 67.2,-213.11"/>
<polygon fill="white" stroke="white" points="70.55,-212.07 64.91,-203.1 63.73,-213.63 70.55,-212.07"/>
</g>
<!-- semigroup&#45;&gt;magma -->
<g id="edge13" class="edge">
<title>semigroup&#45;&gt;magma</title>
<path fill="none" stroke="white" d="M214.38,-166.88C229.54,-157.72 248.41,-146.34 264.74,-136.48"/>
<polygon fill="white" stroke="white" points="266.76,-139.35 273.51,-131.19 263.14,-133.36 266.76,-139.35"/>
</g>
<!-- semigroup&#45;&gt;semigroupoid -->
<g id="edge14" class="edge">
<title>semigroup&#45;&gt;semigroupoid</title>
<path fill="none" stroke="white" d="M186,-166.7C186,-158.98 186,-149.71 186,-141.11"/>
<polygon fill="white" stroke="white" points="189.5,-141.1 186,-131.1 182.5,-141.1 189.5,-141.1"/>
</g>
<!-- quasigroup&#45;&gt;magma -->
<g id="edge17" class="edge">
<title>quasigroup&#45;&gt;magma</title>
<path fill="none" stroke="white" d="M400.2,-166.88C382.89,-157.55 361.28,-145.92 342.74,-135.94"/>
<polygon fill="white" stroke="white" points="344.39,-132.85 333.92,-131.19 341.07,-139.01 344.39,-132.85"/>
</g>
<!-- set -->
<g id="node13" class="node">
<title>set</title>
<polygon fill="none" stroke="white" points="268,-59 214,-59 214,-23 268,-23 268,-59"/>
<text text-anchor="middle" x="241" y="-37.3" font-family="Times,serif" font-size="14.00" fill="white">set</text>
</g>
<!-- magma&#45;&gt;set -->
<g id="edge18" class="edge">
<title>magma&#45;&gt;set</title>
<path fill="none" stroke="white" d="M286.92,-94.7C279.61,-86.3 270.69,-76.07 262.66,-66.86"/>
<polygon fill="white" stroke="white" points="265.11,-64.34 255.91,-59.1 259.84,-68.94 265.11,-64.34"/>
</g>
<!-- semigroupoid&#45;&gt;set -->
<g id="edge19" class="edge">
<title>semigroupoid&#45;&gt;set</title>
<path fill="none" stroke="white" d="M199.6,-94.7C206.12,-86.39 214.07,-76.28 221.25,-67.14"/>
<polygon fill="white" stroke="white" points="224.13,-69.13 227.56,-59.1 218.63,-64.81 224.13,-69.13"/>
</g>
</g>
</svg>
