<?xml version="1.0" encoding="UTF-8" standalone="no"?>
<!DOCTYPE svg PUBLIC "-//W3C//DTD SVG 1.1//EN"
 "http://www.w3.org/Graphics/SVG/1.1/DTD/svg11.dtd">
<!-- Generated by graphviz version 2.43.0 (0)
 -->
<!-- Title: example Pages: 1 -->
<svg width="150pt" height="146pt"
 viewBox="0.00 0.00 150.00 145.80" xmlns="http://www.w3.org/2000/svg" xmlns:xlink="http://www.w3.org/1999/xlink">
<g id="graph0" class="graph" transform="scale(1 1) rotate(0) translate(4 141.8)">
<title>example</title>
<g id="clust1" class="cluster">
<title>cluster_A</title>
<polygon fill="transparent" stroke="black" points="8,-87.2 8,-129.8 34,-129.8 34,-87.2 8,-87.2"/>
<text text-anchor="middle" x="21" y="-114.6" font-family="Times,serif" font-size="14.00" fill="white">A</text>
</g>
<g id="clust2" class="cluster">
<title>cluster_B</title>
<polygon fill="transparent" stroke="black" points="42,-8 42,-129.8 84,-129.8 84,-8 42,-8"/>
<text text-anchor="middle" x="63" y="-114.6" font-family="Times,serif" font-size="14.00" fill="white">B</text>
</g>
<g id="clust5" class="cluster">
<title>cluster_C</title>
<polygon fill="transparent" stroke="black" points="92,-47.6 92,-129.8 134,-129.8 134,-47.6 92,-47.6"/>
<text text-anchor="middle" x="113" y="-114.6" font-family="Times,serif" font-size="14.00" fill="white">C</text>
</g>
<!-- Aroot -->
<g id="node1" class="node">
<title>Aroot</title>
<ellipse fill="white" stroke="white" cx="21" cy="-97" rx="1.8" ry="1.8"/>
</g>
<!-- Broot -->
<g id="node2" class="node">
<title>Broot</title>
<ellipse fill="white" stroke="white" cx="63" cy="-97" rx="1.8" ry="1.8"/>
</g>
<!-- left1 -->
<g id="node3" class="node">
<title>left1</title>
<ellipse fill="white" stroke="white" cx="52" cy="-57.4" rx="1.8" ry="1.8"/>
</g>
<!-- Broot&#45;&gt;left1 -->
<g id="edge1" class="edge">
<title>Broot&#45;&gt;left1</title>
<path fill="none" stroke="white" d="M62.73,-95.07C61.71,-91.59 58.03,-79.02 55.27,-69.57"/>
<polygon fill="white" stroke="white" points="58.56,-68.35 52.39,-59.74 51.84,-70.32 58.56,-68.35"/>
</g>
<!-- right1 -->
<g id="node4" class="node">
<title>right1</title>
<ellipse fill="white" stroke="white" cx="74" cy="-57.4" rx="1.8" ry="1.8"/>
</g>
<!-- Broot&#45;&gt;right1 -->
<g id="edge2" class="edge">
<title>Broot&#45;&gt;right1</title>
<path fill="none" stroke="white" d="M63.27,-95.07C64.29,-91.59 67.97,-79.02 70.73,-69.57"/>
<polygon fill="white" stroke="white" points="74.16,-70.32 73.61,-59.74 67.44,-68.35 74.16,-70.32"/>
</g>
<!-- right21 -->
<g id="node5" class="node">
<title>right21</title>
<ellipse fill="white" stroke="white" cx="52" cy="-17.8" rx="1.8" ry="1.8"/>
</g>
<!-- right1&#45;&gt;right21 -->
<g id="edge3" class="edge">
<title>right1&#45;&gt;right21</title>
<path fill="none" stroke="white" d="M73.46,-55.47C71.3,-51.78 63.18,-37.9 57.57,-28.32"/>
<polygon fill="white" stroke="white" points="60.52,-26.43 52.45,-19.57 54.48,-29.97 60.52,-26.43"/>
</g>
<!-- right22 -->
<g id="node6" class="node">
<title>right22</title>
<ellipse fill="white" stroke="white" cx="74" cy="-17.8" rx="1.8" ry="1.8"/>
</g>
<!-- right1&#45;&gt;right22 -->
<g id="edge4" class="edge">
<title>right1&#45;&gt;right22</title>
<path fill="none" stroke="white" d="M74,-55.47C74,-52.03 74,-39.71 74,-30.29"/>
<polygon fill="white" stroke="white" points="77.5,-30.14 74,-20.14 70.5,-30.14 77.5,-30.14"/>
</g>
<!-- Croot -->
<g id="node7" class="node">
<title>Croot</title>
<ellipse fill="white" stroke="white" cx="113" cy="-97" rx="1.8" ry="1.8"/>
</g>
<!-- left -->
<g id="node8" class="node">
<title>left</title>
<ellipse fill="white" stroke="white" cx="102" cy="-57.4" rx="1.8" ry="1.8"/>
</g>
<!-- Croot&#45;&gt;left -->
<g id="edge5" class="edge">
<title>Croot&#45;&gt;left</title>
<path fill="none" stroke="white" d="M112.73,-95.07C111.71,-91.59 108.03,-79.02 105.27,-69.57"/>
<polygon fill="white" stroke="white" points="108.56,-68.35 102.39,-59.74 101.84,-70.32 108.56,-68.35"/>
</g>
<!-- right -->
<g id="node9" class="node">
<title>right</title>
<ellipse fill="white" stroke="white" cx="124" cy="-57.4" rx="1.8" ry="1.8"/>
</g>
<!-- Croot&#45;&gt;right -->
<g id="edge6" class="edge">
<title>Croot&#45;&gt;right</title>
<path fill="none" stroke="white" d="M113.27,-95.07C114.29,-91.59 117.97,-79.02 120.73,-69.57"/>
<polygon fill="white" stroke="white" points="124.16,-70.32 123.61,-59.74 117.44,-68.35 124.16,-70.32"/>
</g>
</g>
</svg>
