<?xml version="1.0" encoding="UTF-8" standalone="no"?>
<!DOCTYPE svg PUBLIC "-//W3C//DTD SVG 1.1//EN"
 "http://www.w3.org/Graphics/SVG/1.1/DTD/svg11.dtd">
<!-- Generated by graphviz version 2.43.0 (0)
 -->
<!-- Title: example Pages: 1 -->
<svg width="198pt" height="153pt"
 viewBox="0.00 0.00 198.00 153.40" xmlns="http://www.w3.org/2000/svg" xmlns:xlink="http://www.w3.org/1999/xlink">
<g id="graph0" class="graph" transform="scale(1 1) rotate(0) translate(4 149.4)">
<title>example</title>
<text text-anchor="middle" x="95" y="-7.8" font-family="Times,serif" font-size="14.00" fill="white">A left&#45;biased binary tree</text>
<!-- 1 -->
<g id="node1" class="node">
<title>1</title>
<ellipse fill="white" stroke="white" cx="106" cy="-143.6" rx="1.8" ry="1.8"/>
</g>
<!-- 2 -->
<g id="node2" class="node">
<title>2</title>
<ellipse fill="white" stroke="white" cx="95" cy="-104" rx="1.8" ry="1.8"/>
</g>
<!-- 1&#45;&gt;2 -->
<g id="edge1" class="edge">
<title>1&#45;&gt;2</title>
<path fill="none" stroke="white" d="M105.73,-141.67C104.71,-138.19 101.03,-125.62 98.27,-116.17"/>
<polygon fill="white" stroke="white" points="101.56,-114.95 95.39,-106.34 94.84,-116.92 101.56,-114.95"/>
</g>
<!-- 3 -->
<g id="node3" class="node">
<title>3</title>
<ellipse fill="white" stroke="white" cx="117" cy="-104" rx="1.8" ry="1.8"/>
</g>
<!-- 1&#45;&gt;3 -->
<g id="edge2" class="edge">
<title>1&#45;&gt;3</title>
<path fill="none" stroke="white" d="M106.27,-141.67C107.29,-138.19 110.97,-125.62 113.73,-116.17"/>
<polygon fill="white" stroke="white" points="117.16,-116.92 116.61,-106.34 110.44,-114.95 117.16,-116.92"/>
</g>
<!-- 4 -->
<g id="node4" class="node">
<title>4</title>
<ellipse fill="white" stroke="white" cx="84" cy="-64.4" rx="1.8" ry="1.8"/>
</g>
<!-- 2&#45;&gt;4 -->
<g id="edge3" class="edge">
<title>2&#45;&gt;4</title>
<path fill="none" stroke="white" d="M94.73,-102.07C93.71,-98.59 90.03,-86.02 87.27,-76.57"/>
<polygon fill="white" stroke="white" points="90.56,-75.35 84.39,-66.74 83.84,-77.32 90.56,-75.35"/>
</g>
<!-- 5 -->
<g id="node5" class="node">
<title>5</title>
<ellipse fill="white" stroke="white" cx="106" cy="-64.4" rx="1.8" ry="1.8"/>
</g>
<!-- 2&#45;&gt;5 -->
<g id="edge4" class="edge">
<title>2&#45;&gt;5</title>
<path fill="none" stroke="white" d="M95.27,-102.07C96.29,-98.59 99.97,-86.02 102.73,-76.57"/>
<polygon fill="white" stroke="white" points="106.16,-77.32 105.61,-66.74 99.44,-75.35 106.16,-77.32"/>
</g>
<!-- 6 -->
<g id="node6" class="node">
<title>6</title>
<ellipse fill="white" stroke="white" cx="73" cy="-24.8" rx="1.8" ry="1.8"/>
</g>
<!-- 4&#45;&gt;6 -->
<g id="edge5" class="edge">
<title>4&#45;&gt;6</title>
<path fill="none" stroke="white" d="M83.73,-62.47C82.71,-58.99 79.03,-46.42 76.27,-36.97"/>
<polygon fill="white" stroke="white" points="79.56,-35.75 73.39,-27.14 72.84,-37.72 79.56,-35.75"/>
</g>
<!-- 7 -->
<g id="node7" class="node">
<title>7</title>
<ellipse fill="white" stroke="white" cx="95" cy="-24.8" rx="1.8" ry="1.8"/>
</g>
<!-- 4&#45;&gt;7 -->
<g id="edge6" class="edge">
<title>4&#45;&gt;7</title>
<path fill="none" stroke="white" d="M84.27,-62.47C85.29,-58.99 88.97,-46.42 91.73,-36.97"/>
<polygon fill="white" stroke="white" points="95.16,-37.72 94.61,-27.14 88.44,-35.75 95.16,-37.72"/>
</g>
</g>
</svg>
