<?xml version="1.0" encoding="UTF-8" standalone="no"?>
<!DOCTYPE svg PUBLIC "-//W3C//DTD SVG 1.1//EN"
 "http://www.w3.org/Graphics/SVG/1.1/DTD/svg11.dtd">
<!-- Generated by graphviz version 2.43.0 (0)
 -->
<!-- Title: example Pages: 1 -->
<svg width="250pt" height="315pt"
 viewBox="0.00 0.00 250.00 315.00" xmlns="http://www.w3.org/2000/svg" xmlns:xlink="http://www.w3.org/1999/xlink">
<g id="graph0" class="graph" transform="scale(1 1) rotate(0) translate(4 311)">
<title>example</title>
<g id="clust1" class="cluster">
<title>cluster_A</title>
<polygon fill="transparent" stroke="black" points="8,-80 8,-299 98,-299 98,-80 8,-80"/>
<text text-anchor="middle" x="53" y="-283.8" font-family="Times,serif" font-size="14.00" fill="white">simple</text>
</g>
<g id="clust3" class="cluster">
<title>cluster_B</title>
<polygon fill="transparent" stroke="black" points="106,-8 106,-299 234,-299 234,-8 106,-8"/>
<text text-anchor="middle" x="170" y="-283.8" font-family="Times,serif" font-size="14.00" fill="white">complex</text>
</g>
<!-- a -->
<g id="node1" class="node">
<title>a</title>
<ellipse fill="none" stroke="white" cx="53" cy="-250" rx="27" ry="18"/>
<text text-anchor="middle" x="53" y="-246.3" font-family="Times,serif" font-size="14.00" fill="white">a</text>
</g>
<!-- b -->
<g id="node2" class="node">
<title>b</title>
<ellipse fill="none" stroke="white" cx="43" cy="-178" rx="27" ry="18"/>
<text text-anchor="middle" x="43" y="-174.3" font-family="Times,serif" font-size="14.00" fill="white">b</text>
</g>
<!-- a&#45;&gt;b -->
<g id="edge1" class="edge">
<title>a&#45;&gt;b</title>
<path fill="none" stroke="white" d="M50.58,-232.05C49.48,-224.35 48.15,-215.03 46.91,-206.36"/>
<polygon fill="white" stroke="white" points="50.35,-205.68 45.47,-196.28 43.42,-206.67 50.35,-205.68"/>
</g>
<!-- c -->
<g id="node3" class="node">
<title>c</title>
<ellipse fill="none" stroke="white" cx="53" cy="-106" rx="27" ry="18"/>
<text text-anchor="middle" x="53" y="-102.3" font-family="Times,serif" font-size="14.00" fill="white">c</text>
</g>
<!-- a&#45;&gt;c -->
<g id="edge2" class="edge">
<title>a&#45;&gt;c</title>
<path fill="none" stroke="white" d="M63.24,-233.02C69.12,-222.86 75.94,-209.18 79,-196 82.62,-180.41 82.62,-175.59 79,-160 76.78,-150.43 72.57,-140.59 68.18,-132.02"/>
<polygon fill="white" stroke="white" points="71.11,-130.08 63.24,-122.98 64.96,-133.44 71.11,-130.08"/>
</g>
<!-- b&#45;&gt;c -->
<g id="edge3" class="edge">
<title>b&#45;&gt;c</title>
<path fill="none" stroke="white" d="M45.42,-160.05C46.52,-152.35 47.85,-143.03 49.09,-134.36"/>
<polygon fill="white" stroke="white" points="52.58,-134.67 50.53,-124.28 45.65,-133.68 52.58,-134.67"/>
</g>
<!-- 1 -->
<g id="node4" class="node">
<title>1</title>
<ellipse fill="none" stroke="white" cx="161" cy="-250" rx="27" ry="18"/>
<text text-anchor="middle" x="161" y="-246.3" font-family="Times,serif" font-size="14.00" fill="white">1</text>
</g>
<!-- 2 -->
<g id="node5" class="node">
<title>2</title>
<ellipse fill="none" stroke="white" cx="161" cy="-178" rx="27" ry="18"/>
<text text-anchor="middle" x="161" y="-174.3" font-family="Times,serif" font-size="14.00" fill="white">2</text>
</g>
<!-- 1&#45;&gt;2 -->
<g id="edge4" class="edge">
<title>1&#45;&gt;2</title>
<path fill="none" stroke="white" d="M161,-231.7C161,-223.98 161,-214.71 161,-206.11"/>
<polygon fill="white" stroke="white" points="164.5,-206.1 161,-196.1 157.5,-206.1 164.5,-206.1"/>
</g>
<!-- 3 -->
<g id="node6" class="node">
<title>3</title>
<ellipse fill="none" stroke="white" cx="141" cy="-34" rx="27" ry="18"/>
<text text-anchor="middle" x="141" y="-30.3" font-family="Times,serif" font-size="14.00" fill="white">3</text>
</g>
<!-- 1&#45;&gt;3 -->
<g id="edge5" class="edge">
<title>1&#45;&gt;3</title>
<path fill="none" stroke="white" d="M147.25,-234.07C139.04,-224.1 129.38,-210.25 125,-196 110.92,-150.21 122.7,-93.98 132.13,-61.54"/>
<polygon fill="white" stroke="white" points="135.51,-62.47 135.08,-51.88 128.81,-60.43 135.51,-62.47"/>
</g>
<!-- 4 -->
<g id="node7" class="node">
<title>4</title>
<ellipse fill="none" stroke="white" cx="181" cy="-106" rx="27" ry="18"/>
<text text-anchor="middle" x="181" y="-102.3" font-family="Times,serif" font-size="14.00" fill="white">4</text>
</g>
<!-- 1&#45;&gt;4 -->
<g id="edge6" class="edge">
<title>1&#45;&gt;4</title>
<path fill="none" stroke="white" d="M179.56,-236.86C192.18,-227.42 207.83,-213.08 215,-196 224.3,-173.85 212.1,-148.19 199.81,-130.13"/>
<polygon fill="white" stroke="white" points="202.56,-127.96 193.86,-121.92 196.9,-132.07 202.56,-127.96"/>
</g>
<!-- 2&#45;&gt;2 -->
<g id="edge7" class="edge">
<title>2&#45;&gt;2</title>
<path fill="none" stroke="white" d="M180.9,-190.43C193.69,-193.68 206,-189.53 206,-178 206,-169.62 199.5,-165.14 191.04,-164.56"/>
<polygon fill="white" stroke="white" points="190.5,-161.1 180.9,-165.57 191.19,-168.07 190.5,-161.1"/>
</g>
<!-- 2&#45;&gt;3 -->
<g id="edge8" class="edge">
<title>2&#45;&gt;3</title>
<path fill="none" stroke="white" d="M154.72,-160.07C151.2,-149.79 147.1,-136.32 145,-124 141.51,-103.55 140.58,-80.09 140.48,-62.39"/>
<polygon fill="white" stroke="white" points="143.98,-62.21 140.52,-52.2 136.98,-62.18 143.98,-62.21"/>
</g>
<!-- 2&#45;&gt;4 -->
<g id="edge9" class="edge">
<title>2&#45;&gt;4</title>
<path fill="none" stroke="white" d="M160.03,-159.7C161.55,-151.37 164.25,-141.23 167.33,-132.08"/>
<polygon fill="white" stroke="white" points="170.62,-133.26 170.79,-122.67 164.05,-130.85 170.62,-133.26"/>
</g>
<!-- 4&#45;&gt;2 -->
<g id="edge10" class="edge">
<title>4&#45;&gt;2</title>
<path fill="none" stroke="white" d="M181.97,-124.29C180.48,-132.48 177.84,-142.42 174.83,-151.45"/>
<polygon fill="white" stroke="white" points="171.44,-150.52 171.3,-161.12 178.02,-152.92 171.44,-150.52"/>
</g>
<!-- 4&#45;&gt;3 -->
<g id="edge11" class="edge">
<title>4&#45;&gt;3</title>
<path fill="none" stroke="white" d="M171.72,-88.76C166.83,-80.19 160.71,-69.49 155.23,-59.9"/>
<polygon fill="white" stroke="white" points="158.23,-58.09 150.23,-51.15 152.15,-61.57 158.23,-58.09"/>
</g>
<!-- 4&#45;&gt;4 -->
<g id="edge12" class="edge">
<title>4&#45;&gt;4</title>
<path fill="none" stroke="white" d="M200.9,-118.43C213.69,-121.68 226,-117.53 226,-106 226,-97.62 219.5,-93.14 211.04,-92.56"/>
<polygon fill="white" stroke="white" points="210.5,-89.1 200.9,-93.57 211.19,-96.07 210.5,-89.1"/>
</g>
</g>
</svg>
